<svg xmlns="http://www.w3.org/2000/svg" width="24" height="24" viewBox="0 0 24 24">
  <g fill="#5B6B7B" fill-rule="evenodd">
    <path d="M12,23 C18.075,23 23,18.075 23,12 C23,5.925 18.075,1 12,1 C5.925,1 1,5.925 1,12 C1,18.075 5.925,23 12,23 M12,24 C5.373,24 0,18.627 0,12 C0,5.373 5.373,0 12,0 C18.627,0 24,5.373 24,12 C24,18.627 18.627,24 12,24"/>
    <path d="M14,8.982 L15.839,8.982 C16.139,8.982 16.372,9.245 16.335,9.543 L16.091,11.543 C16.061,11.793 15.848,11.982 15.595,11.982 L14,11.982 L14,18.482 C14,18.758 13.776,18.982 13.5,18.982 L10.5,18.982 C10.224,18.982 10,18.758 10,18.482 L10,11.982 L8.5,11.982 C8.224,11.982 8,11.758 8,11.482 L8,9.482 C8,9.206 8.224,8.982 8.5,8.982 L10,8.982 L10,8.318 C10,6.382 10.915,5 13.151,5 L15.501,5.006 C15.777,5.007 16,5.23 16,5.506 L16,7.812 C16,8.088 15.776,8.312 15.5,8.312 L14.092,8.312 C14.006,8.312 14,8.317 14,8.459 L14,8.982 Z M13.5,9.982 C13.224,9.982 13,9.758 13,9.482 L13,8.459 C13,7.716 13.493,7.312 14.092,7.312 L15,7.312 L15,6.005 L13.15,6 C11.575,6 11,6.869 11,8.318 L11,9.482 C11,9.758 10.776,9.982 10.5,9.982 L9,9.982 L9,10.982 L10.5,10.982 C10.776,10.982 11,11.206 11,11.482 L11,17.982 L13,17.982 L13,11.482 C13,11.206 13.224,10.982 13.5,10.982 L15.152,10.982 L15.274,9.982 L13.5,9.982 Z"/>
  </g>
</svg>
