<svg xmlns="http://www.w3.org/2000/svg" width="24" height="24" viewBox="0 0 24 24">
  <g fill="#5B6B7B" fill-rule="evenodd">
    <path d="M12,23 C18.075,23 23,18.075 23,12 C23,5.925 18.075,1 12,1 C5.925,1 1,5.925 1,12 C1,18.075 5.925,23 12,23 M12,24 C5.373,24 0,18.627 0,12 C0,5.373 5.373,0 12,0 C18.627,0 24,5.373 24,12 C24,18.627 18.627,24 12,24"/>
    <path d="M10.0436,12.0241 C10.0436,10.9191 10.9386,10.0241 12.0436,10.0241 C13.1476,10.0241 14.0436,10.9191 14.0436,12.0241 C14.0436,13.1291 13.1476,14.0241 12.0436,14.0241 C10.9386,14.0241 10.0436,13.1291 10.0436,12.0241 M8.9626,12.0241 C8.9626,13.7261 10.3416,15.1051 12.0436,15.1051 C13.7446,15.1051 15.1246,13.7261 15.1246,12.0241 C15.1246,10.3221 13.7446,8.9431 12.0436,8.9431 C10.3416,8.9431 8.9626,10.3221 8.9626,12.0241 M14.5266,8.8211 C14.5266,9.2181 14.8486,9.5411 15.2466,9.5411 C15.6436,9.5411 15.9666,9.2181 15.9666,8.8211 C15.9666,8.4241 15.6446,8.1011 15.2466,8.1011 C14.8486,8.1011 14.5266,8.4241 14.5266,8.8211 M9.6186,16.9081 C9.0336,16.8811 8.7156,16.7841 8.5046,16.7011 C8.2246,16.5921 8.0246,16.4621 7.8146,16.2531 C7.6046,16.0431 7.4746,15.8431 7.3656,15.5631 C7.2836,15.3521 7.1856,15.0341 7.1596,14.4491 C7.1306,13.8161 7.1246,13.6261 7.1246,12.0241 C7.1246,10.4221 7.1306,10.2321 7.1596,9.5991 C7.1856,9.0141 7.2836,8.6971 7.3656,8.4851 C7.4746,8.2051 7.6046,8.0051 7.8146,7.7951 C8.0246,7.5851 8.2246,7.4551 8.5046,7.3461 C8.7156,7.2641 9.0336,7.1661 9.6186,7.1401 C10.2516,7.1111 10.4416,7.1051 12.0436,7.1051 C13.6456,7.1051 13.8356,7.1111 14.4686,7.1401 C15.0536,7.1661 15.3706,7.2641 15.5826,7.3461 C15.8626,7.4551 16.0626,7.5851 16.2726,7.7951 C16.4826,8.0051 16.6126,8.2051 16.7216,8.4851 C16.8036,8.6961 16.9016,9.0141 16.9276,9.5991 C16.9566,10.2321 16.9626,10.4221 16.9626,12.0241 C16.9626,13.6261 16.9566,13.8161 16.9276,14.4491 C16.9016,15.0341 16.8036,15.3521 16.7216,15.5631 C16.6126,15.8431 16.4826,16.0431 16.2726,16.2531 C16.0626,16.4621 15.8626,16.5921 15.5826,16.7011 C15.3716,16.7841 15.0536,16.8811 14.4686,16.9081 C13.8356,16.9371 13.6456,16.9431 12.0436,16.9431 C10.4416,16.9431 10.2516,16.9371 9.6186,16.9081 M9.5696,6.0601 C8.9306,6.0891 8.4946,6.1911 8.1136,6.3391 C7.7186,6.4921 7.3846,6.6981 7.0506,7.0311 C6.7166,7.3651 6.5116,7.6991 6.3586,8.0941 C6.2096,8.4751 6.1086,8.9121 6.0796,9.5501 C6.0496,10.1901 6.0436,10.3951 6.0436,12.0241 C6.0436,13.6531 6.0496,13.8581 6.0796,14.4981 C6.1086,15.1361 6.2096,15.5731 6.3586,15.9541 C6.5116,16.3491 6.7166,16.6831 7.0506,17.0171 C7.3836,17.3501 7.7186,17.5551 8.1136,17.7091 C8.4946,17.8571 8.9306,17.9591 9.5696,17.9881 C10.2096,18.0171 10.4136,18.0241 12.0436,18.0241 C13.6736,18.0241 13.8776,18.0171 14.5176,17.9881 C15.1556,17.9591 15.5926,17.8571 15.9736,17.7091 C16.3676,17.5551 16.7026,17.3501 17.0366,17.0171 C17.3696,16.6831 17.5746,16.3491 17.7286,15.9541 C17.8766,15.5731 17.9786,15.1361 18.0076,14.4981 C18.0366,13.8571 18.0436,13.6531 18.0436,12.0241 C18.0436,10.3951 18.0366,10.1901 18.0076,9.5501 C17.9786,8.9121 17.8766,8.4751 17.7286,8.0941 C17.5746,7.6991 17.3696,7.3651 17.0366,7.0311 C16.7026,6.6981 16.3676,6.4921 15.9736,6.3391 C15.5926,6.1911 15.1556,6.0891 14.5176,6.0601 C13.8776,6.0311 13.6736,6.0241 12.0436,6.0241 C10.4136,6.0241 10.2096,6.0311 9.5696,6.0601"/>
  </g>
</svg>
