<svg xmlns="http://www.w3.org/2000/svg" width="24" height="24" viewBox="0 0 24 24">
  <g fill="#5B6B7B" fill-rule="evenodd">
    <path d="M12,23 C18.075,23 23,18.075 23,12 C23,5.925 18.075,1 12,1 C5.925,1 1,5.925 1,12 C1,18.075 5.925,23 12,23 M12,24 C5.373,24 0,18.627 0,12 C0,5.373 5.373,0 12,0 C18.627,0 24,5.373 24,12 C24,18.627 18.627,24 12,24"/>
    <path d="M17.6552,11.31 C18.9502,11.31 20.0002,12.359 20.0002,13.655 C20.0002,14.95 18.9502,16 17.6552,16 L12.6992,16 L12.6492,15.998 C12.2852,15.961 12.0072,15.652 12.0002,15.279 L12.0002,9.416 C12.0062,9.087 12.1812,8.864 12.4982,8.739 C12.9872,8.551 13.2602,8.486 13.6992,8.486 C15.4492,8.486 16.9332,9.688 17.3422,11.331 C17.4452,11.317 17.5502,11.31 17.6552,11.31 Z M17.6552,15 L13.0002,15 L13.0002,9.619 C13.2872,9.515 13.4422,9.486 13.6992,9.486 C15.1302,9.486 16.3182,10.581 16.4432,11.998 C16.4732,12.336 16.8242,12.547 17.1362,12.414 C17.2972,12.346 17.4732,12.31 17.6552,12.31 C18.3982,12.31 19.0002,12.912 19.0002,13.655 C19.0002,14.398 18.3982,15 17.6552,15 Z M10.0002,9.626 C10.0002,9.35 10.2242,9.126 10.5002,9.126 C10.7762,9.126 11.0002,9.35 11.0002,9.626 L11.0002,15.5 C11.0002,15.776 10.7762,16 10.5002,16 C10.2242,16 10.0002,15.776 10.0002,15.5 L10.0002,9.626 Z M8.0002,10.5 C8.0002,10.224 8.2242,10 8.5002,10 C8.7762,10 9.0002,10.224 9.0002,10.5 L9.0002,15.394 C9.0002,15.67 8.7762,15.894 8.5002,15.894 C8.2242,15.894 8.0002,15.67 8.0002,15.394 L8.0002,10.5 Z M6.0002,11.44 C6.0002,11.164 6.2242,10.94 6.5002,10.94 C6.7762,10.94 7.0002,11.164 7.0002,11.44 L7.0002,15.031 C7.0002,15.307 6.7762,15.531 6.5002,15.531 C6.2242,15.531 6.0002,15.307 6.0002,15.031 L6.0002,11.44 Z M4.0002,12.564 C4.0002,12.288 4.2242,12.064 4.5002,12.064 C4.7762,12.064 5.0002,12.288 5.0002,12.564 L5.0002,15.165 C5.0002,15.441 4.7762,15.665 4.5002,15.665 C4.2242,15.665 4.0002,15.441 4.0002,15.165 L4.0002,12.564 Z"/>
  </g>
</svg>
