<svg xmlns="http://www.w3.org/2000/svg" width="24" height="24" viewBox="0 0 24 24">
  <g fill="#5B6B7B" fill-rule="evenodd">
    <path d="M12,23 C18.075,23 23,18.075 23,12 C23,5.925 18.075,1 12,1 C5.925,1 1,5.925 1,12 C1,18.075 5.925,23 12,23 M12,24 C5.373,24 0,18.627 0,12 C0,5.373 5.373,0 12,0 C18.627,0 24,5.373 24,12 C24,18.627 18.627,24 12,24"/>
    <path d="M16.4957,6.768 C16.6507,6.743 16.8297,6.718 17.0267,6.691 C17.2737,6.658 17.5377,6.625 17.8017,6.594 C17.9607,6.576 18.0837,6.562 18.1547,6.554 C18.5757,6.509 18.8597,6.975 18.6247,7.328 C18.5677,7.414 18.5017,7.533 18.4177,7.701 C18.3697,7.796 18.1937,8.156 18.1667,8.21 C17.9127,8.725 17.7117,9.063 17.4767,9.303 C17.4777,9.34 17.4777,9.38 17.4777,9.423 C17.4777,13.668 14.1777,17.412 9.4897,17.412 C7.9447,17.412 6.4627,16.969 5.1847,16.149 C4.7377,15.863 4.9857,15.17 5.5127,15.232 C6.3937,15.335 7.2727,15.198 8.0637,14.84 C7.2917,14.476 6.6857,13.804 6.4167,12.964 C6.3637,12.795 6.4027,12.628 6.4977,12.506 C5.8627,11.929 5.4707,11.098 5.4707,10.186 L5.4707,10.151 C5.4707,9.92 5.6207,9.741 5.8137,9.676 C5.6057,9.254 5.4917,8.782 5.4917,8.29 C5.4917,7.731 5.6387,7.192 5.9157,6.715 C6.0917,6.413 6.5157,6.38 6.7357,6.651 C7.8537,8.024 9.4447,8.924 11.2047,9.162 C11.2047,9.147 11.2047,9.132 11.2047,9.117 C11.2047,7.387 12.6067,5.985 14.3377,5.985 C15.1187,5.985 15.8557,6.273 16.4227,6.78 C16.4467,6.776 16.4707,6.772 16.4957,6.768 M17.1597,7.682 C16.9697,7.708 16.7997,7.732 16.6527,7.756 C16.5357,7.774 16.4367,7.792 16.3567,7.808 C16.1867,7.842 16.0117,7.786 15.8937,7.659 C15.4927,7.232 14.9357,6.985 14.3377,6.985 C13.1597,6.985 12.2047,7.94 12.2047,9.117 C12.2047,9.285 12.2227,9.448 12.2597,9.599 C12.3377,9.924 12.0817,10.232 11.7487,10.216 C9.7557,10.117 7.9077,9.281 6.5257,7.907 C6.5027,8.032 6.4917,8.16 6.4917,8.29 C6.4917,9.012 6.8517,9.671 7.4407,10.066 C7.8587,10.346 7.6477,10.999 7.1447,10.981 C6.9597,10.975 6.7767,10.952 6.5987,10.914 C6.8477,11.599 7.4397,12.128 8.1787,12.275 C8.6967,12.378 8.7227,13.108 8.2137,13.248 C8.0567,13.291 7.8967,13.321 7.7347,13.339 C8.1207,13.822 8.7107,14.127 9.3607,14.139 C9.8307,14.148 10.0297,14.742 9.6597,15.033 C8.9967,15.553 8.2407,15.914 7.4417,16.106 C8.0977,16.307 8.7867,16.412 9.4897,16.412 C13.5947,16.412 16.4777,13.141 16.4777,9.423 C16.4777,9.288 16.4757,9.197 16.4707,9.109 C16.4617,8.939 16.5397,8.777 16.6777,8.677 C16.8337,8.564 17.0167,8.28 17.2707,7.766 C17.2777,7.752 17.2977,7.713 17.3227,7.661 C17.2677,7.668 17.2137,7.675 17.1597,7.682"/>
  </g>
</svg>
