<svg xmlns="http://www.w3.org/2000/svg" width="100" height="100" viewBox="0 0 100 100">
  <g fill="#FF4747">
    <path d="M50,99 L50,99 C77.0619527,99 99,77.0619527 99,50 C99,22.9380473 77.0619527,1 50,1 C22.9380473,1 1,22.9380473 1,50 C1,77.0619527 22.9380473,99 50,99 L50,99 Z M50,100 L50,100 C22.3857625,100 0,77.6142375 0,50 C0,22.3857625 22.3857625,0 50,0 C77.6142375,0 100,22.3857625 100,50 C100,77.6142375 77.6142375,100 50,100 L50,100 Z"/>
    <g transform="translate(20 19)">
      <path d="M50.7909091,55.953719 L50.7909091,9.32561983 C50.7909091,4.45610035 46.6057462,0.5 41.4272727,0.5 L18.8818182,0.5 C13.7015207,0.5 9.51818182,4.45515673 9.51818182,9.32561983 L9.51818182,55.953719 C9.51818182,57.142897 10.5490206,58.1181818 11.8363636,58.1181818 L48.4727273,58.1181818 C49.7582975,58.1181818 50.7909091,57.1418945 50.7909091,55.953719 Z M51.7909091,55.953719 C51.7909091,57.7071105 50.2984298,59.1181818 48.4727273,59.1181818 L11.8363636,59.1181818 C10.0087438,59.1181818 8.51818182,57.7079493 8.51818182,55.953719 L8.51818182,9.32561983 C8.51818182,3.88994079 13.1613884,-0.5 18.8818182,-0.5 L41.4272727,-0.5 C47.1458372,-0.5 51.7909091,3.89083763 51.7909091,9.32561983 L51.7909091,55.953719 Z"/>
      <path d="M42.3818182 52.2636364C40.2379492 52.2636364 38.5 50.5256872 38.5 48.3818182 38.5 46.2379492 40.2379492 44.5 42.3818182 44.5 44.5256872 44.5 46.2636364 46.2379492 46.2636364 48.3818182 46.2636364 50.5256872 44.5256872 52.2636364 42.3818182 52.2636364zM42.3818182 51.2636364C43.9734024 51.2636364 45.2636364 49.9734024 45.2636364 48.3818182 45.2636364 46.7902339 43.9734024 45.5 42.3818182 45.5 40.7902339 45.5 39.5 46.7902339 39.5 48.3818182 39.5 49.9734024 40.7902339 51.2636364 42.3818182 51.2636364zM18.0363636 52.3545455C15.8924947 52.3545455 14.1545455 50.6165963 14.1545455 48.4727273 14.1545455 46.3288583 15.8924947 44.5909091 18.0363636 44.5909091 20.1802326 44.5909091 21.9181818 46.3288583 21.9181818 48.4727273 21.9181818 50.6165963 20.1802326 52.3545455 18.0363636 52.3545455zM18.0363636 51.3545455C19.6279479 51.3545455 20.9181818 50.0643115 20.9181818 48.4727273 20.9181818 46.881143 19.6279479 45.5909091 18.0363636 45.5909091 16.4447794 45.5909091 15.1545455 46.881143 15.1545455 48.4727273 15.1545455 50.0643115 16.4447794 51.3545455 18.0363636 51.3545455zM12.6181818 60.3090909C12.6181818 60.8145277 13.0225281 61.2181818 13.525935 61.2181818L16.3467922 61.2181818C16.8513499 61.2181818 17.2545455 60.8135016 17.2545455 60.3090909L17.2545455 59.4 12.6181818 59.4 12.6181818 60.3090909zM18.2545455 60.3090909C18.2545455 61.3649652 17.4044591 62.2181818 16.3467922 62.2181818L13.525935 62.2181818C12.4706266 62.2181818 11.6181818 61.3671964 11.6181818 60.3090909L11.6181818 58.9C11.6181818 58.6238576 11.8420394 58.4 12.1181818 58.4L17.7545455 58.4C18.0306878 58.4 18.2545455 58.6238576 18.2545455 58.9L18.2545455 60.3090909zM43.6181818 60.3090909C43.6181818 60.8145277 44.0225281 61.2181818 44.525935 61.2181818L47.3467922 61.2181818C47.8513499 61.2181818 48.2545455 60.8135016 48.2545455 60.3090909L48.2545455 59.4 43.6181818 59.4 43.6181818 60.3090909zM49.2545455 60.3090909C49.2545455 61.3649652 48.4044591 62.2181818 47.3467922 62.2181818L44.525935 62.2181818C43.4706266 62.2181818 42.6181818 61.3671964 42.6181818 60.3090909L42.6181818 58.9C42.6181818 58.6238576 42.8420394 58.4 43.1181818 58.4L48.7545455 58.4C49.0306878 58.4 49.2545455 58.6238576 49.2545455 58.9L49.2545455 60.3090909zM50.7909091 14.3090909L9.51818182 14.3090909 9.51818182 38.6727273 50.7909091 38.6727273 50.7909091 14.3090909zM51.2909091 39.6727273L9.01818182 39.6727273C8.74203944 39.6727273 8.51818182 39.4488696 8.51818182 39.1727273L8.51818182 13.8090909C8.51818182 13.5329485 8.74203944 13.3090909 9.01818182 13.3090909L51.2909091 13.3090909C51.5670515 13.3090909 51.7909091 13.5329485 51.7909091 13.8090909L51.7909091 39.1727273C51.7909091 39.4488696 51.5670515 39.6727273 51.2909091 39.6727273zM23 7C22.4477153 7 22 7.44771525 22 8 22 8.55228475 22.4477153 9 23 9L37 9C37.5522847 9 38 8.55228475 38 8 38 7.44771525 37.5522847 7 37 7L23 7zM23 6L37 6C38.1045695 6 39 6.8954305 39 8 39 9.1045695 38.1045695 10 37 10L23 10C21.8954305 10 21 9.1045695 21 8 21 6.8954305 21.8954305 6 23 6zM-.218181818 23.3860542L-.218181818 16.6272727C-.218181818 16.3511304.0056758069 16.1272727.281818182 16.1272727L5.91818182 16.1272727C6.19432419 16.1272727 6.41818182 16.3511304 6.41818182 16.6272727L6.41818182 23.3860542C6.41818182 25.2288048 4.93635845 26.7090909 3.1 26.7090909 1.26938616 26.7090909-.218181818 25.2201161-.218181818 23.3860542zM.781818182 17.1272727L.781818182 23.3860542C.781818182 24.6680428 1.82188263 25.7090909 3.1 25.7090909 4.38430592 25.7090909 5.41818182 24.6762876 5.41818182 23.3860542L5.41818182 17.1272727.781818182 17.1272727zM54.4545455 23.3860542L54.4545455 16.6272727C54.4545455 16.3511304 54.6784031 16.1272727 54.9545455 16.1272727L60.5909091 16.1272727C60.8670515 16.1272727 61.0909091 16.3511304 61.0909091 16.6272727L61.0909091 23.3860542C61.0909091 25.2288048 59.6090857 26.7090909 57.7727273 26.7090909 55.9421134 26.7090909 54.4545455 25.2201161 54.4545455 23.3860542zM55.4545455 23.3860542C55.4545455 24.6680428 56.4946099 25.7090909 57.7727273 25.7090909 59.0570332 25.7090909 60.0909091 24.6762876 60.0909091 23.3860542L60.0909091 17.1272727 55.4545455 17.1272727 55.4545455 23.3860542z"/>
      <path d="M2.66363636 17.1272727C2.38749399 17.1272727 2.16363636 16.9034151 2.16363636 16.6272727 2.16363636 16.3511304 2.38749399 16.1272727 2.66363636 16.1272727L8.3 16.1272727C8.57614237 16.1272727 8.8 16.3511304 8.8 16.6272727 8.8 16.9034151 8.57614237 17.1272727 8.3 17.1272727L2.66363636 17.1272727zM51.5727273 17.1272727C51.2965849 17.1272727 51.0727273 16.9034151 51.0727273 16.6272727 51.0727273 16.3511304 51.2965849 16.1272727 51.5727273 16.1272727L57.2090909 16.1272727C57.4852333 16.1272727 57.7090909 16.3511304 57.7090909 16.6272727 57.7090909 16.9034151 57.4852333 17.1272727 57.2090909 17.1272727L51.5727273 17.1272727z"/>
    </g>
  </g>
</svg>
