<svg xmlns="http://www.w3.org/2000/svg" width="100" height="100" viewBox="0 0 100 100">
  <g fill="none" fill-rule="evenodd">
    <path fill="#FF4747" fill-rule="nonzero" d="M100,50 C100,22.3857625 77.6142375,0 50,0 C22.3857625,0 0,22.3857625 0,50 C0,77.6142375 22.3857625,100 50,100 C77.6142375,100 100,77.6142375 100,50 Z M0.99009901,50 C0.99009901,22.9325791 22.9325791,0.99009901 50,0.99009901 C77.0674209,0.99009901 99.009901,22.9325791 99.009901,50 C99.009901,77.0674209 77.0674209,99.009901 50,99.009901 C22.9325791,99.009901 0.99009901,77.0674209 0.99009901,50 Z"/>
    <path fill="#FF4747" fill-rule="nonzero" d="M32.9999947,39 L32.9997792,59.5148589 C32.7735512,67.1240356 38.8415322,73.2273511 46.36727,73.0002275 L53.4562594,73.0002275 C60.9581901,73.2266326 67.056814,67.1456113 67,59.5 L67,39 L32.9999947,39 Z M67.999997,43.0002595 L71.8600164,43.0022629 C76.1427401,43.4111123 79.5,46.8529941 79.5,50.9858626 C79.5,55.1135076 76.149345,58.5577236 71.8125,59 L67.9999865,59 L67.9999862,59.4962837 C68.0609677,67.7007348 61.4993438,74.2434197 53.4411765,74 L46.3898302,74 C38.2906121,74.2401941 31.7569992,67.6659037 32,59.5 L32,38.5 C32,38.2238576 32.2238576,38 32.5,38 L67.5,38 C67.7761424,38 68,38.2238576 68,38.5 L67.999997,43.0002595 Z M67.9999964,44 L67.9999872,58.0003063 L71.7614747,58.0026104 C75.5525063,57.6137028 78.5,54.5839057 78.5,50.9858626 C78.5,47.3843005 75.5490632,44.3589834 71.8125,44 L67.9999964,44 Z M50.0001,17.509998 C49.9945782,17.2339108 50.2139148,17.0056217 50.490002,17.0001 C50.7660892,16.9945782 50.9943783,17.2139148 50.9999,17.490002 C51.0793493,21.4624675 50.0055059,23.1242807 47.2652232,24.8310348 C47.1158628,24.9238059 47.1158628,24.9238059 46.9682713,25.0151653 C44.7517738,26.3886453 44.0421681,27.3270226 43.9999306,29.8612734 C43.9953288,30.1373774 43.7677719,30.3574735 43.4916678,30.3528717 C43.2155638,30.34827 42.9954677,30.120713 43.0000694,29.844609 C43.0489669,26.9107637 43.9645109,25.7000551 46.4415389,24.1651341 C46.5896118,24.073476 46.5896118,24.073476 46.7365441,23.9822129 C49.1985193,22.4487996 50.0718459,21.0972937 50.0001,17.509998 Z M61.0001777,17.4866714 C61.0075389,17.2106272 61.2372844,16.9928165 61.5133286,17.0001777 C61.7893728,17.0075389 62.0071835,17.2372844 61.9998223,17.5133286 C61.8993064,21.2826771 60.7759051,23.033807 58.2675758,24.6350447 C58.1759763,24.6935189 58.081728,24.7528555 57.9620673,24.8275792 C57.811283,24.9215738 57.811283,24.9215738 57.6630038,25.0140891 C55.5483653,26.3364004 54.8934117,27.2844107 54.9995665,29.8321259 C55.0110625,30.1080289 54.7967183,30.3410118 54.5208153,30.3525077 C54.2449123,30.3640037 54.0119294,30.1496594 54.0004335,29.8737564 C53.8770727,26.9130974 54.7419315,25.6612605 57.132814,24.1662102 C57.2828659,24.0725884 57.2828659,24.0725884 57.4323957,23.9793764 C57.549483,23.9062596 57.6411329,23.848559 57.7294982,23.7921494 C59.9735617,22.3596106 60.9091214,20.9012835 61.0001777,17.4866714 Z"/>
  </g>
</svg>
