<svg xmlns="http://www.w3.org/2000/svg" width="100" height="100" viewBox="0 0 100 100">
  <g fill="#FF4747" fill-rule="evenodd">
    <path d="M50,99 L50,99 C77.0619527,99 99,77.0619527 99,50 C99,22.9380473 77.0619527,1 50,1 C22.9380473,1 1,22.9380473 1,50 C1,77.0619527 22.9380473,99 50,99 L50,99 L50,99 Z M50,100 L50,100 C22.3857625,100 0,77.6142375 0,50 C0,22.3857625 22.3857625,0 50,0 C77.6142375,0 100,22.3857625 100,50 C100,77.6142375 77.6142375,100 50,100 L50,100 L50,100 Z"/>
    <g fill-rule="nonzero" transform="translate(22 21)">
      <path d="M5.75987994,34.1135091 L6.46698672,34.8206159 L4.72894506,36.5586576 C0.123097295,41.1645053 0.123097295,48.6309363 4.72903554,53.2345163 C9.33487771,57.8427168 16.7987806,57.8427168 21.4047133,53.2344258 L23.1427549,51.4963841 L23.8498617,52.2034909 L22.1119105,53.9414421 C17.1155027,58.9404082 9.01815562,58.9404082 4.02192883,53.9416231 C-0.974563962,48.9476887 -0.974563962,40.847953 4.02183828,35.8515508 L5.75987994,34.1135091 Z"/>
      <polygon points="26.62 13.255 27.327 13.962 13.42 27.871 12.713 27.164"/>
      <path d="M51.668623,24.3957893 L50.9595187,23.6906857 L52.693733,21.9466352 C57.2994902,17.3432363 57.2994902,9.87680532 52.6936424,5.27095756 C48.0877796,0.665094703 40.6237371,0.665094703 36.0178742,5.27095756 L34.2798326,7.00899922 L33.5727258,6.30189244 L35.3107674,4.56385078 C40.3071546,-0.43253637 48.4043621,-0.43253637 53.4007492,4.56385078 C58.3971515,9.56025301 58.3971515,17.6599887 53.401748,22.652831 L51.668623,24.3957893 Z"/>
      <polygon points="30.803 45.25 30.096 44.544 43.998 30.632 44.705 31.339"/>
      <path d="M52.3398432 25.7768542L47.8327625 21.2697735 41.5854527 27.514875 46.0947 32.0219974 52.3398432 25.7768542zM45.7413133 33.0826575L40.5247299 27.8685325C40.3293648 27.6732595 40.3293555 27.3565645 40.5247091 27.1612799L47.4793341 20.2091133C47.6746064 20.0139101 47.9911407 20.013938 48.1863784 20.2091758L53.4005034 25.4233008C53.5957655 25.6185629 53.5957655 25.9351454 53.4005034 26.1304076L46.4483367 33.0825742C46.2531071 33.2778038 45.9365889 33.2778411 45.7413133 33.0826575zM36.6968932 10.1301375L32.1875833 5.62295263 25.9423568 11.8681791 30.4495417 16.377489 36.6968932 10.1301375zM30.0958216 17.4381492L24.8816966 12.2215659C24.686513 12.0262903 24.6865503 11.709772 24.8817799 11.5145424L31.8339466 4.56237578C32.0291762 4.36714617 32.3456944 4.36710887 32.5409701 4.56229246L37.7575534 9.77641746C37.9528941 9.97166611 37.9529314 10.2883129 37.7576367 10.4836076L30.8030117 17.4382326C30.607717 17.6335272 30.2910703 17.6334899 30.0958216 17.4381492z"/>
      <path d="M33.5730508 13.9617367C33.3778807 13.7663825 33.37803 13.4498001 33.5733841 13.25463 33.7687383 13.0594599 34.0853208 13.0596091 34.2804908 13.2549633L44.7062825 23.6905883C44.9014526 23.8859425 44.9013034 24.2025249 44.7059492 24.397695 44.510595 24.5928651 44.1940126 24.5927159 43.9988425 24.3973617L33.5730508 13.9617367zM31.4801474 46.63655L26.9730667 42.1294693 20.7257568 48.3745708 25.2350042 52.8816932 31.4801474 46.63655zM24.8816174 53.9423534L19.6650341 48.7282284C19.469669 48.5329553 19.4696597 48.2162603 19.6650133 48.0209758L26.6196383 41.0688091C26.8149105 40.8736059 27.1314448 40.8736339 27.3266826 41.0688716L32.5408076 46.2829966C32.7360697 46.4782588 32.7360697 46.7948412 32.5408076 46.9901034L25.5886409 53.9422701C25.3934113 54.1374997 25.0768931 54.137537 24.8816174 53.9423534zM15.8369515 30.9910625L11.3276416 26.4838776 5.08241513 32.7291041 9.5896 37.238414 15.8369515 30.9910625zM9.23587996 38.2990742L4.02175496 33.0824909C3.82657137 32.8872153 3.82660867 32.570697 4.02183828 32.3754674L10.9740049 25.4233008C11.1692345 25.2280712 11.4857528 25.2280339 11.6810284 25.4232175L16.8976117 30.6373425C17.0929524 30.8325911 17.0929897 31.1492379 16.8976951 31.3445326L9.94307006 38.2991576C9.74777537 38.4944522 9.43112861 38.4944149 9.23587996 38.2990742z"/>
      <path d="M12.7134799,34.8205742 C12.5182408,34.6252891 12.5182781,34.3087066 12.7135633,34.1134674 C12.9088484,33.9182283 13.2254309,33.9182656 13.4206701,34.1135508 L23.8489201,44.5442591 C24.0441592,44.7395443 24.0441219,45.0561268 23.8488367,45.2513659 C23.6535516,45.446605 23.3369691,45.4465677 23.1417299,45.2512826 L12.7134799,34.8205742 Z"/>
    </g>
  </g>
</svg>
