<svg xmlns="http://www.w3.org/2000/svg" width="100" height="100" viewBox="0 0 100 100">
  <g fill="#FF4747">
    <path d="M50,99 L50,99 C77.0619527,99 99,77.0619527 99,50 C99,22.9380473 77.0619527,1 50,1 C22.9380473,1 1,22.9380473 1,50 C1,77.0619527 22.9380473,99 50,99 L50,99 Z M50,100 L50,100 C22.3857625,100 0,77.6142375 0,50 C0,22.3857625 22.3857625,0 50,0 C77.6142375,0 100,22.3857625 100,50 C100,77.6142375 77.6142375,100 50,100 L50,100 Z"/>
    <g transform="rotate(45 13.944 63.935)">
      <polygon points="35.277 19.124 35.984 19.831 20.276 35.545 19.569 34.838"/>
      <polygon points="41.169 25.016 41.876 25.723 26.168 41.437 25.461 40.73"/>
      <path d="M20.2746885,58.4056376 C21.7050403,59.8384344 24.0243363,59.8399458 25.4561688,58.4081133 C26.8905011,56.973781 26.8897464,54.6567998 25.4561966,53.2208034 L7.77808926,35.5454736 C6.34836999,34.1133103 4.02629646,34.1133103 2.59383117,35.5457756 C1.16233378,36.977273 1.16303165,39.296903 2.59395996,40.7304642 L20.2746885,58.4056376 Z M1.88677995,41.4374978 C0.065604106,39.6132092 0.0646423931,36.6607508 1.88672439,34.8386688 C3.70981465,33.0155786 6.6655189,33.0155786 8.48547005,34.8386411 L26.1635769,52.5139704 C27.9871742,54.3406796 27.988135,57.2903607 26.1632756,59.1152201 C24.3406118,60.9378839 21.3876851,60.9359595 19.5673355,59.1124978 L1.88677995,41.4374978 Z"/>
      <path d="M30.0904495 56.4433438C31.5261603 57.8741628 33.8489307 57.873407 35.2811688 56.4411688 36.7140119 55.0083258 36.7132564 52.6890301 35.2783911 51.2566089L9.74505772 25.7232756C8.31489186 24.2931098 5.99235192 24.2938658 4.55802185 25.7257513 3.12793031 27.1582875 3.12788161 29.4781724 4.55787575 30.910769L30.0904495 56.4433438zM3.85061328 31.6177201C2.03045173 29.7944474 2.03045173 26.8422193 3.85091481 25.0186453 5.67623177 23.1964379 8.63147162 23.195476 10.4521645 25.0161688L35.9851963 50.5492009C37.8108847 52.3717791 37.8118465 55.3247047 35.9882756 57.1482756 34.1658172 58.970734 31.2108122 58.9716956 29.3839466 57.1510534L3.85061328 31.6177201zM26.1641089 9.30422439L51.6974423 34.8375577C53.1298571 36.2699725 55.4544751 36.2699725 56.8823037 34.8372564 58.3162344 33.4057686 58.3154789 31.0864746 56.8819637 29.6529594L31.3511448 4.11658467C29.9213754 2.68437122 27.5990693 2.68437122 26.1644107 4.11658467 24.7333097 5.55013204 24.7325537 7.8726691 26.1641089 9.30422439zM25.4570022 10.0113312C23.63492 8.18924904 23.635882 5.23401285 25.4573037 3.40947866 27.2831529 1.58673989 30.2386246 1.58673989 32.0585919 3.40981841L57.5891089 28.9458911C59.4131075 30.7698896 59.4140693 33.7228133 57.5897128 35.5440596 55.7721916 37.3678052 52.8134762 37.3678052 50.9903355 35.5446645L25.4570022 10.0113312z"/>
      <path d="M35.9893867,7.33727994 L53.6613074,25.0175342 C55.0965693,26.450351 57.4160976,26.450351 58.8461688,25.0178355 C60.2786845,23.5853199 60.2786845,21.2630135 58.8461133,19.8304423 L41.1745505,2.15332288 C39.7381534,0.721819841 37.4207074,0.721064973 35.9869107,2.152418 C34.5564431,3.58533092 34.5571987,5.90509191 35.9893867,7.33727994 Z M35.2821966,8.04430337 C33.4597714,6.22187815 33.4588097,3.26941782 35.2798037,1.445312 C37.1045922,-0.376367807 40.0538083,-0.37540715 41.881109,1.44566884 L59.5532756,19.1233911 C61.3763155,20.946431 61.3763155,23.9019024 59.5535774,25.7246402 C57.7333468,27.5479823 54.7806529,27.5479823 52.9544188,25.7248589 L35.2821966,8.04430337 Z"/>
      <path d="M6.74344549,48.3938159 L6.74344549,55.8382603 L11.4101122,55.8382603 L11.4101122,48.3938159 L6.74344549,48.3938159 Z M6.74344549,47.3938159 L11.4101122,47.3938159 C11.9623969,47.3938159 12.4101122,47.8415311 12.4101122,48.3938159 L12.4101122,55.8382603 C12.4101122,56.3905451 11.9623969,56.8382603 11.4101122,56.8382603 L6.74344549,56.8382603 C6.19116074,56.8382603 5.74344549,56.3905451 5.74344549,55.8382603 L5.74344549,48.3938159 C5.74344549,47.8415311 6.19116074,47.3938159 6.74344549,47.3938159 Z" transform="rotate(-45 9.077 52.116)"/>
      <path d="M49.8384407,4.75036007 L49.8384407,12.1948045 L54.5051074,12.1948045 L54.5051074,4.75036007 L49.8384407,4.75036007 Z M49.8384407,3.75036007 L54.5051074,3.75036007 C55.0573921,3.75036007 55.5051074,4.19807532 55.5051074,4.75036007 L55.5051074,12.1948045 C55.5051074,12.7470893 55.0573921,13.1948045 54.5051074,13.1948045 L49.8384407,13.1948045 C49.286156,13.1948045 48.8384407,12.7470893 48.8384407,12.1948045 L48.8384407,4.75036007 C48.8384407,4.19807532 49.286156,3.75036007 49.8384407,3.75036007 Z" transform="rotate(-45 52.172 8.473)"/>
    </g>
  </g>
</svg>
